<svg id="svg" version="1.1" xmlns="http://www.w3.org/2000/svg" xmlns:xlink="http://www.w3.org/1999/xlink" width="400" height="400" viewBox="0, 0, 400,400"><g id="svgg"><path id="path0" d="M170.610 30.322 C 168.551 31.037,167.078 32.483,166.286 34.566 C 164.797 38.485,162.398 52.654,160.136 70.878 L 159.305 77.581 156.494 78.545 C 152.099 80.053,147.345 82.017,142.962 84.137 L 138.938 86.082 123.877 74.382 C 103.195 58.313,103.873 58.680,99.186 61.039 C 92.669 64.319,71.309 84.789,61.265 97.379 C 56.026 103.948,56.031 106.115,61.305 112.500 C 67.887 120.468,75.468 130.185,80.550 137.166 L 83.446 141.144 82.141 143.619 C 79.719 148.213,76.771 155.264,75.202 160.212 C 74.920 161.102,74.575 161.830,74.436 161.830 C 74.298 161.830,70.174 162.436,65.273 163.176 C 60.372 163.915,50.995 165.329,44.436 166.317 C 29.989 168.493,30.128 168.442,28.076 172.371 L 27.344 173.772 27.344 200.781 L 27.344 227.790 27.938 229.057 C 29.839 233.112,28.907 232.843,53.679 236.486 C 65.094 238.165,74.449 239.557,74.468 239.579 C 74.486 239.602,74.773 240.525,75.105 241.629 C 76.542 246.411,78.999 252.431,81.811 258.055 L 83.663 261.760 80.386 266.092 C 78.584 268.475,74.745 273.438,71.855 277.121 C 58.444 294.216,58.591 293.989,58.599 297.545 C 58.606 300.946,59.217 302.014,64.997 308.747 C 71.924 316.815,96.339 340.347,99.240 341.751 C 101.334 342.765,104.852 342.521,106.825 341.225 C 107.234 340.956,114.713 335.313,123.445 328.683 C 132.178 322.054,139.389 316.650,139.471 316.675 C 139.553 316.699,141.328 317.513,143.415 318.482 C 147.466 320.363,153.856 322.925,157.422 324.098 C 158.619 324.491,159.599 324.931,159.601 325.074 C 159.617 326.743,166.128 367.760,166.486 368.453 C 167.132 369.703,168.672 371.094,170.201 371.808 L 171.540 372.433 198.201 372.492 C 227.593 372.558,226.181 372.619,228.273 371.180 C 230.610 369.572,231.462 367.104,233.348 356.473 C 234.559 349.647,237.723 326.988,237.723 325.142 C 237.723 324.980,238.150 324.721,238.672 324.567 C 242.323 323.485,251.234 319.816,255.924 317.463 L 258.164 316.338 273.557 328.390 C 292.857 343.500,292.760 343.443,296.745 341.952 C 302.056 339.965,318.718 324.697,331.698 309.924 C 342.561 297.560,342.575 298.104,331.020 283.705 C 324.973 276.171,318.136 267.280,314.469 262.185 L 313.681 261.090 315.751 256.828 C 317.611 253.001,320.982 244.862,321.977 241.797 C 322.186 241.152,322.442 240.625,322.546 240.625 C 323.238 240.625,364.108 234.321,364.732 234.118 C 366.601 233.510,368.069 232.057,369.154 229.740 L 369.754 228.460 369.754 201.558 L 369.754 174.656 369.022 173.168 C 367.130 169.325,368.105 169.604,343.289 165.803 L 322.598 162.634 322.215 161.395 C 320.831 156.911,317.443 148.711,314.784 143.407 L 313.438 140.721 314.583 139.166 C 316.553 136.490,322.022 129.396,327.482 122.433 C 338.267 108.680,338.504 108.301,338.504 104.799 C 338.504 100.642,334.945 96.109,319.647 80.784 C 301.263 62.368,298.568 60.154,294.535 60.159 C 291.539 60.162,292.731 59.384,273.892 73.629 L 257.717 85.859 254.361 84.250 C 250.532 82.414,244.517 79.962,240.347 78.539 C 238.783 78.004,237.501 77.467,237.499 77.344 C 237.468 75.643,230.964 34.681,230.617 34.002 C 229.993 32.782,228.442 31.331,227.012 30.627 L 225.781 30.022 198.772 29.972 C 173.300 29.924,171.698 29.944,170.610 30.322 M206.585 144.532 C 229.589 147.575,249.368 165.652,254.329 188.170 C 263.257 228.698,229.241 264.509,188.405 257.573 C 165.206 253.633,146.164 234.569,142.193 211.307 C 136.393 177.330,159.936 147.165,194.643 144.107 C 196.674 143.928,203.984 144.188,206.585 144.532 " stroke="none" fill="#ffffff" fill-rule="evenodd"></path><path id="path1" d="M167.735 31.975 L 166.853 32.924 167.801 32.042 C 168.684 31.221,168.853 31.027,168.684 31.027 C 168.647 31.027,168.220 31.454,167.735 31.975 M228.795 31.543 C 228.795 31.581,229.121 31.908,229.520 32.269 L 230.246 32.924 229.590 32.199 C 228.979 31.522,228.795 31.371,228.795 31.543 M301.563 63.281 C 302.229 63.956,302.825 64.509,302.887 64.509 C 302.948 64.509,302.453 63.956,301.786 63.281 C 301.119 62.606,300.523 62.054,300.462 62.054 C 300.400 62.054,300.896 62.606,301.563 63.281 M304.799 66.295 C 305.528 67.031,306.175 67.634,306.236 67.634 C 306.297 67.634,305.751 67.031,305.022 66.295 C 304.293 65.558,303.647 64.955,303.585 64.955 C 303.524 64.955,304.070 65.558,304.799 66.295 M89.830 67.690 L 89.174 68.415 89.900 67.760 C 90.576 67.148,90.728 66.964,90.555 66.964 C 90.517 66.964,90.190 67.291,89.830 67.690 M308.594 69.866 C 309.570 70.848,310.419 71.652,310.481 71.652 C 310.542 71.652,309.793 70.848,308.817 69.866 C 307.841 68.884,306.992 68.080,306.930 68.080 C 306.869 68.080,307.617 68.884,308.594 69.866 M87.723 69.531 C 87.181 70.084,86.788 70.536,86.849 70.536 C 86.910 70.536,87.404 70.084,87.946 69.531 C 88.489 68.979,88.882 68.527,88.821 68.527 C 88.759 68.527,88.265 68.979,87.723 69.531 M84.370 72.712 L 82.478 74.665 84.431 72.773 C 86.245 71.015,86.486 70.759,86.323 70.759 C 86.290 70.759,85.411 71.638,84.370 72.712 M314.174 75.223 C 315.767 76.819,317.120 78.125,317.181 78.125 C 317.242 78.125,315.990 76.819,314.397 75.223 C 312.805 73.627,311.452 72.321,311.390 72.321 C 311.329 72.321,312.582 73.627,314.174 75.223 M78.460 78.348 C 76.990 79.821,75.838 81.027,75.900 81.027 C 75.961 81.027,77.214 79.821,78.683 78.348 C 80.152 76.875,81.304 75.670,81.243 75.670 C 81.182 75.670,79.929 76.875,78.460 78.348 M71.536 85.547 L 69.531 87.612 71.596 85.607 C 73.514 83.746,73.762 83.482,73.600 83.482 C 73.567 83.482,72.638 84.411,71.536 85.547 M325.112 86.161 C 326.335 87.388,327.386 88.393,327.447 88.393 C 327.508 88.393,326.558 87.388,325.335 86.161 C 324.112 84.933,323.061 83.929,322.999 83.929 C 322.938 83.929,323.889 84.933,325.112 86.161 M68.073 89.230 L 66.853 90.513 68.136 89.293 C 69.329 88.160,69.522 87.946,69.356 87.946 C 69.321 87.946,68.744 88.524,68.073 89.230 M328.906 90.179 C 329.511 90.792,330.056 91.295,330.117 91.295 C 330.179 91.295,329.734 90.792,329.129 90.179 C 328.525 89.565,327.980 89.063,327.919 89.063 C 327.857 89.063,328.302 89.565,328.906 90.179 M65.726 91.797 L 64.844 92.746 65.792 91.863 C 66.675 91.043,66.844 90.848,66.675 90.848 C 66.638 90.848,66.211 91.275,65.726 91.797 M331.027 92.522 C 331.443 92.952,331.834 93.304,331.896 93.304 C 331.957 93.304,331.666 92.952,331.250 92.522 C 330.834 92.093,330.443 91.741,330.381 91.741 C 330.320 91.741,330.610 92.093,331.027 92.522 M64.160 93.583 L 63.504 94.308 64.230 93.652 C 64.906 93.041,65.058 92.857,64.886 92.857 C 64.847 92.857,64.521 93.184,64.160 93.583 M337.642 100.781 C 338.158 101.663,338.170 101.676,338.170 101.401 C 338.170 101.272,337.963 100.928,337.710 100.639 L 337.250 100.112 337.642 100.781 M81.238 144.889 C 80.738 145.884,80.365 146.734,80.409 146.778 C 80.453 146.822,80.911 146.008,81.426 144.969 C 81.941 143.930,82.314 143.080,82.255 143.080 C 82.196 143.080,81.739 143.894,81.238 144.889 M236.830 159.040 C 237.497 159.715,238.093 160.268,238.154 160.268 C 238.216 160.268,237.720 159.715,237.054 159.040 C 236.387 158.365,235.791 157.813,235.730 157.813 C 235.668 157.813,236.164 158.365,236.830 159.040 M159.925 159.208 L 158.817 160.379 159.989 159.272 C 161.078 158.243,161.263 158.036,161.097 158.036 C 161.061 158.036,160.534 158.563,159.925 159.208 M156.353 162.779 L 155.246 163.951 156.417 162.843 C 157.062 162.234,157.589 161.707,157.589 161.671 C 157.589 161.505,157.382 161.690,156.353 162.779 M240.513 162.723 C 241.118 163.337,241.663 163.839,241.724 163.839 C 241.786 163.839,241.341 163.337,240.737 162.723 C 240.132 162.109,239.587 161.607,239.526 161.607 C 239.464 161.607,239.909 162.109,240.513 162.723 M29.688 169.754 C 29.145 170.307,28.752 170.759,28.813 170.759 C 28.875 170.759,29.369 170.307,29.911 169.754 C 30.453 169.202,30.846 168.750,30.785 168.750 C 30.724 168.750,30.230 169.202,29.688 169.754 M141.570 196.875 C 141.570 197.305,141.616 197.480,141.672 197.266 C 141.728 197.051,141.728 196.699,141.672 196.484 C 141.616 196.270,141.570 196.445,141.570 196.875 M255.409 196.875 C 255.409 197.305,255.455 197.480,255.511 197.266 C 255.567 197.051,255.567 196.699,255.511 196.484 C 255.455 196.270,255.409 196.445,255.409 196.875 M141.570 205.580 C 141.570 206.010,141.616 206.186,141.672 205.971 C 141.728 205.756,141.728 205.405,141.672 205.190 C 141.616 204.975,141.570 205.151,141.570 205.580 M255.409 205.580 C 255.409 206.010,255.455 206.186,255.511 205.971 C 255.567 205.756,255.567 205.405,255.511 205.190 C 255.455 204.975,255.409 205.151,255.409 205.580 M29.455 231.529 C 30.002 232.112,30.479 232.589,30.515 232.589 C 30.683 232.589,30.506 232.389,29.520 231.464 L 28.460 230.469 29.455 231.529 M367.175 232.757 L 366.406 233.594 367.243 232.825 C 368.022 232.109,368.183 231.920,368.013 231.920 C 367.975 231.920,367.599 232.296,367.175 232.757 M154.018 237.123 C 154.018 237.162,154.344 237.488,154.743 237.849 L 155.469 238.504 154.813 237.779 C 154.202 237.103,154.018 236.951,154.018 237.123 M242.285 237.779 L 241.629 238.504 242.355 237.849 C 243.031 237.238,243.183 237.054,243.011 237.054 C 242.972 237.054,242.646 237.380,242.285 237.779 M158.147 241.518 C 159.617 242.991,160.869 244.196,160.931 244.196 C 160.992 244.196,159.840 242.991,158.371 241.518 C 156.901 240.045,155.649 238.839,155.587 238.839 C 155.526 238.839,156.678 240.045,158.147 241.518 M238.728 241.518 C 237.258 242.991,236.106 244.196,236.168 244.196 C 236.229 244.196,237.482 242.991,238.951 241.518 C 240.420 240.045,241.572 238.839,241.511 238.839 C 241.449 238.839,240.197 240.045,238.728 241.518 M161.384 244.489 C 161.384 244.528,161.710 244.854,162.109 245.215 L 162.835 245.871 162.179 245.145 C 161.568 244.469,161.384 244.317,161.384 244.489 M234.919 245.145 L 234.263 245.871 234.989 245.215 C 235.665 244.604,235.817 244.420,235.644 244.420 C 235.606 244.420,235.280 244.746,234.919 245.145 M194.029 258.190 C 194.244 258.246,194.595 258.246,194.810 258.190 C 195.025 258.133,194.849 258.088,194.420 258.088 C 193.990 258.088,193.814 258.133,194.029 258.190 M202.288 258.190 C 202.503 258.246,202.854 258.246,203.069 258.190 C 203.284 258.133,203.108 258.088,202.679 258.088 C 202.249 258.088,202.073 258.133,202.288 258.190 M64.509 308.552 C 64.509 308.590,64.835 308.917,65.234 309.277 L 65.960 309.933 65.304 309.208 C 64.693 308.531,64.509 308.380,64.509 308.552 M66.853 311.161 C 67.332 311.652,67.775 312.054,67.836 312.054 C 67.898 312.054,67.555 311.652,67.076 311.161 C 66.596 310.670,66.154 310.268,66.092 310.268 C 66.031 310.268,66.373 310.670,66.853 311.161 M330.681 311.217 L 329.799 312.165 330.748 311.283 C 331.630 310.462,331.799 310.268,331.630 310.268 C 331.594 310.268,331.167 310.695,330.681 311.217 M328.230 313.895 L 326.897 315.290 328.292 313.958 C 329.588 312.720,329.790 312.500,329.625 312.500 C 329.590 312.500,328.962 313.128,328.230 313.895 M69.643 314.174 C 70.434 314.972,71.131 315.625,71.192 315.625 C 71.254 315.625,70.657 314.972,69.866 314.174 C 69.075 313.376,68.378 312.723,68.316 312.723 C 68.255 312.723,68.852 313.376,69.643 314.174 M323.772 318.527 C 322.303 320.000,321.151 321.205,321.212 321.205 C 321.274 321.205,322.526 320.000,323.996 318.527 C 325.465 317.054,326.617 315.848,326.556 315.848 C 326.494 315.848,325.242 317.054,323.772 318.527 M75.558 320.313 C 77.273 322.031,78.727 323.438,78.789 323.438 C 78.850 323.438,77.497 322.031,75.781 320.313 C 74.066 318.594,72.612 317.188,72.551 317.188 C 72.489 317.188,73.843 318.594,75.558 320.313 M82.031 326.563 C 83.254 327.790,84.305 328.795,84.367 328.795 C 84.428 328.795,83.478 327.790,82.254 326.563 C 81.031 325.335,79.980 324.330,79.919 324.330 C 79.858 324.330,80.808 325.335,82.031 326.563 M313.277 329.074 L 311.049 331.362 313.337 329.134 C 315.462 327.064,315.726 326.786,315.565 326.786 C 315.532 326.786,314.502 327.815,313.277 329.074 M86.384 330.692 C 87.175 331.490,87.872 332.143,87.934 332.143 C 87.995 332.143,87.398 331.490,86.607 330.692 C 85.816 329.894,85.119 329.241,85.058 329.241 C 84.996 329.241,85.593 329.894,86.384 330.692 M309.478 332.645 L 308.371 333.817 309.542 332.709 C 310.187 332.100,310.714 331.573,310.714 331.537 C 310.714 331.371,310.507 331.556,309.478 332.645 M89.732 333.817 C 90.399 334.492,90.995 335.045,91.056 335.045 C 91.118 335.045,90.622 334.492,89.955 333.817 C 89.289 333.142,88.693 332.589,88.631 332.589 C 88.570 332.589,89.065 333.142,89.732 333.817 M307.240 334.654 L 306.585 335.379 307.310 334.724 C 307.986 334.113,308.138 333.929,307.966 333.929 C 307.927 333.929,307.601 334.255,307.240 334.654 M92.522 336.384 C 93.127 336.998,93.672 337.500,93.733 337.500 C 93.795 337.500,93.350 336.998,92.746 336.384 C 92.141 335.770,91.596 335.268,91.535 335.268 C 91.473 335.268,91.918 335.770,92.522 336.384 M95.080 338.672 C 96.005 339.657,96.205 339.835,96.205 339.667 C 96.205 339.631,95.728 339.154,95.145 338.607 L 94.085 337.612 95.080 338.672 M229.119 370.592 L 228.237 371.540 229.185 370.658 C 230.068 369.837,230.237 369.643,230.068 369.643 C 230.031 369.643,229.604 370.070,229.119 370.592 M172.600 372.699 C 172.815 372.755,173.167 372.755,173.382 372.699 C 173.597 372.642,173.421 372.596,172.991 372.596 C 172.561 372.596,172.386 372.642,172.600 372.699 " stroke="none" fill="#ffffff" fill-rule="evenodd"></path><path id="path2" d="M185.547 29.855 C 192.637 29.888,204.238 29.888,211.328 29.855 C 218.418 29.822,212.617 29.795,198.438 29.795 C 184.258 29.795,178.457 29.822,185.547 29.855 M294.141 59.979 C 294.417 60.032,294.869 60.032,295.145 59.979 C 295.421 59.926,295.195 59.882,294.643 59.882 C 294.090 59.882,293.864 59.926,294.141 59.979 M306.250 67.704 C 306.250 67.742,306.576 68.069,306.975 68.429 L 307.701 69.085 307.045 68.359 C 306.434 67.683,306.250 67.531,306.250 67.704 M311.272 72.545 C 311.752 73.036,312.194 73.438,312.256 73.438 C 312.317 73.438,311.975 73.036,311.496 72.545 C 311.016 72.054,310.573 71.652,310.512 71.652 C 310.451 71.652,310.793 72.054,311.272 72.545 M78.011 79.074 L 73.549 83.594 78.069 79.132 C 80.555 76.677,82.589 74.643,82.589 74.611 C 82.589 74.453,82.157 74.874,78.011 79.074 M319.754 80.804 C 321.224 82.277,322.476 83.482,322.538 83.482 C 322.599 83.482,321.447 82.277,319.978 80.804 C 318.508 79.330,317.256 78.125,317.194 78.125 C 317.133 78.125,318.285 79.330,319.754 80.804 M326.563 87.793 C 326.563 87.831,326.889 88.158,327.288 88.519 L 328.013 89.174 327.358 88.449 C 326.747 87.772,326.563 87.621,326.563 87.793 M338.668 104.911 C 338.668 105.340,338.714 105.516,338.770 105.301 C 338.826 105.086,338.826 104.735,338.770 104.520 C 338.714 104.305,338.668 104.481,338.668 104.911 M196.921 144.139 C 197.744 144.181,199.151 144.182,200.046 144.139 C 200.941 144.097,200.268 144.062,198.549 144.061 C 196.830 144.061,196.098 144.096,196.921 144.139 M238.728 160.714 C 239.580 161.574,240.328 162.277,240.390 162.277 C 240.451 162.277,239.804 161.574,238.951 160.714 C 238.098 159.855,237.350 159.152,237.289 159.152 C 237.227 159.152,237.875 159.855,238.728 160.714 M157.813 161.049 C 156.898 161.970,156.200 162.723,156.261 162.723 C 156.323 162.723,157.121 161.970,158.036 161.049 C 158.950 160.128,159.648 159.375,159.587 159.375 C 159.526 159.375,158.727 160.128,157.813 161.049 M27.117 200.781 C 27.117 214.777,27.144 220.535,27.176 213.577 C 27.209 206.620,27.209 195.169,27.176 188.131 C 27.144 181.093,27.117 186.786,27.117 200.781 M369.974 201.674 C 369.974 215.670,370.001 221.428,370.033 214.470 C 370.066 207.513,370.066 196.062,370.033 189.024 C 370.001 181.986,369.974 187.679,369.974 201.674 M141.379 201.116 C 141.379 202.528,141.415 203.105,141.460 202.400 C 141.504 201.694,141.504 200.539,141.460 199.833 C 141.415 199.127,141.379 199.704,141.379 201.116 M255.664 201.228 C 255.664 202.578,255.701 203.102,255.746 202.391 C 255.790 201.681,255.790 200.576,255.745 199.936 C 255.700 199.296,255.663 199.877,255.664 201.228 M157.924 241.518 C 158.404 242.009,158.846 242.411,158.908 242.411 C 158.969 242.411,158.627 242.009,158.147 241.518 C 157.668 241.027,157.225 240.625,157.164 240.625 C 157.102 240.625,157.445 241.027,157.924 241.518 M238.839 241.629 C 238.297 242.182,237.904 242.634,237.965 242.634 C 238.026 242.634,238.520 242.182,239.063 241.629 C 239.605 241.077,239.998 240.625,239.937 240.625 C 239.875 240.625,239.381 241.077,238.839 241.629 M197.718 258.423 C 198.243 258.470,199.047 258.469,199.504 258.421 C 199.961 258.373,199.531 258.335,198.549 258.335 C 197.567 258.336,197.193 258.376,197.718 258.423 M58.311 297.545 C 58.311 297.974,58.357 298.150,58.413 297.935 C 58.469 297.720,58.469 297.369,58.413 297.154 C 58.357 296.939,58.311 297.115,58.311 297.545 M326.104 316.016 L 325.335 316.853 326.172 316.083 C 326.632 315.660,327.009 315.284,327.009 315.246 C 327.009 315.076,326.820 315.237,326.104 316.016 M71.205 315.683 C 71.205 315.715,73.189 317.699,75.614 320.091 L 80.022 324.442 75.672 320.033 C 71.630 315.937,71.205 315.524,71.205 315.683 M318.300 324.051 L 315.513 326.897 318.359 324.110 C 321.003 321.522,321.307 321.205,321.146 321.205 C 321.114 321.205,319.833 322.486,318.300 324.051 M83.705 327.972 C 83.705 328.010,84.032 328.336,84.431 328.697 L 85.156 329.353 84.501 328.627 C 83.890 327.951,83.705 327.799,83.705 327.972 M87.277 331.320 C 87.277 331.358,87.603 331.685,88.002 332.045 L 88.728 332.701 88.072 331.975 C 87.461 331.299,87.277 331.147,87.277 331.320 M186.105 372.712 C 193.011 372.745,204.311 372.745,211.217 372.712 C 218.122 372.679,212.472 372.652,198.661 372.652 C 184.849 372.652,179.199 372.679,186.105 372.712 " stroke="none" fill="#ffffff" fill-rule="evenodd"></path><path id="path3" d="" stroke="none" fill="#ffffff" fill-rule="evenodd"></path><path id="path4" d="" stroke="none" fill="#ffffff" fill-rule="evenodd"></path></g></svg>